<svg width="142" height="33" viewBox="0 0 142 33" fill="none" xmlns="http://www.w3.org/2000/svg">
<path id="Finder" d="M27.108 12.488L24.84 13.46L20.232 6.8H12.096V16.016H15.984L18.612 12.128H20.916V22.856L18.288 24.188L15.84 19.076H12.096V28.076L18.54 29.372L17.244 32H1.584V29.696L4.968 27.032V7.448L0.936 6.296L2.232 3.704H24.3L27.108 3.056V12.488ZM41.3722 32H29.5642V29.696L32.7682 26.96V19.292L29.5642 17.168V14.9L36.8722 11.84H39.4282V28.328L42.6682 29.372L41.3722 32ZM36.0802 0.967998C37.2082 0.967998 38.1202 1.328 38.8162 2.048C39.5362 2.744 39.8962 3.608 39.8962 4.64C39.8962 5.384 39.6322 6.08 39.1042 6.728C38.6002 7.352 37.9522 7.856 37.1602 8.24C36.3922 8.624 35.6482 8.816 34.9282 8.816C33.8242 8.816 32.9002 8.468 32.1562 7.772C31.4362 7.052 31.0762 6.176 31.0762 5.144C31.0762 4.4 31.3282 3.716 31.8322 3.092C32.3602 2.444 33.0202 1.928 33.8122 1.544C34.6042 1.16 35.3602 0.967998 36.0802 0.967998ZM68.4833 31.964H59.8793V20.66C59.8793 19.58 59.7113 18.812 59.3753 18.356C59.0633 17.9 58.5113 17.672 57.7193 17.672C56.5913 17.672 55.4513 17.996 54.2993 18.644V28.292L57.5393 29.336L56.2433 31.964H44.4353V29.66L47.6393 26.924V19.364L44.4353 17.312V15.008L52.3553 11.84L53.7953 15.872L58.0433 12.452C58.6913 12.26 59.4473 12.164 60.3113 12.164C62.2073 12.164 63.7193 12.668 64.8473 13.676C65.9753 14.66 66.5393 16.004 66.5393 17.708V28.328L69.7793 29.336L68.4833 31.964ZM94.7683 32.036H86.1643V29.336L82.7083 32.108C81.9403 32.3 81.0523 32.396 80.0443 32.396C78.4603 32.396 77.0323 31.988 75.7603 31.172C74.5123 30.332 73.5283 29.192 72.8083 27.752C72.1123 26.288 71.7643 24.68 71.7643 22.928C71.7643 21.008 72.3883 19.232 73.6363 17.6C74.8843 15.944 76.4443 14.636 78.3163 13.676C80.1883 12.692 82.0003 12.2 83.7523 12.2C84.6163 12.2 85.4203 12.404 86.1643 12.812V8.024L82.9603 5.9V3.596L90.2683 0.571999H92.8243V28.328L96.0643 29.408L94.7683 32.036ZM82.3483 26.996C83.7403 26.996 85.0123 26.708 86.1643 26.132V19.652C86.0203 18.788 85.5643 18.08 84.7963 17.528C84.0283 16.976 82.9843 16.7 81.6643 16.7C79.7443 16.7 78.7843 18.212 78.7843 21.236C78.7843 22.916 79.0843 24.308 79.6843 25.412C80.3083 26.492 81.2083 27.032 82.3843 27.032L82.3483 26.996ZM110.33 12.164C112.922 12.164 114.926 13.148 116.342 15.116C117.782 17.06 118.478 19.808 118.43 23.36H105.578C105.842 24.632 106.334 25.652 107.054 26.42C107.774 27.164 108.71 27.536 109.862 27.536C111.566 27.536 114.05 26.804 117.314 25.34L118.394 27.572L113.21 31.748C111.698 32.156 109.886 32.36 107.774 32.36C105.974 32.36 104.354 31.952 102.914 31.136C101.474 30.296 100.346 29.156 99.5304 27.716C98.7384 26.276 98.3424 24.668 98.3424 22.892C98.3424 20.972 98.9664 19.196 100.214 17.564C101.462 15.908 103.022 14.6 104.894 13.64C106.766 12.656 108.578 12.164 110.33 12.164ZM108.386 16.664C107.402 16.664 106.658 17 106.154 17.672C105.674 18.32 105.41 19.328 105.362 20.696H111.77C111.626 19.328 111.302 18.32 110.798 17.672C110.294 17 109.49 16.664 108.386 16.664ZM133.911 17.708C133.119 17.708 132.363 17.996 131.643 18.572V27.932L137.259 29.336L135.963 31.964H121.779V29.66L124.983 26.924V19.364L121.779 17.312V15.008L129.699 11.84L131.067 15.728L134.235 12.452C134.739 12.26 135.303 12.164 135.927 12.164C137.343 12.164 138.531 12.476 139.491 13.1C140.475 13.7 141.159 14.54 141.543 15.62L137.799 20.336H135.243C135.219 19.376 135.099 18.704 134.883 18.32C134.691 17.912 134.367 17.708 133.911 17.708Z" fill="white"/>
</svg>
